<?xml version="1.0" encoding="UTF-8"?>
<!DOCTYPE svg PUBLIC "-//W3C//DTD SVG 1.1//EN" "http://www.w3.org/Graphics/SVG/1.1/DTD/svg11.dtd">
<!-- Creator: CorelDRAW -->
<svg xmlns="http://www.w3.org/2000/svg" xml:space="preserve" width="512px" height="512px" version="1.1" style="shape-rendering:geometricPrecision; text-rendering:geometricPrecision; image-rendering:optimizeQuality; fill-rule:evenodd; clip-rule:evenodd"
viewBox="0 0 512 512"
 xmlns:xlink="http://www.w3.org/1999/xlink">
 <defs>
  <style type="text/css">
   <![CDATA[
    .fil0 {fill:black}
   ]]>
  </style>
 </defs>
 <g id="Layer_x0020_1">
  <metadata id="CorelCorpID_0Corel-Layer"/>
  <path class="fil0" d="M131 462c-9,0 -17,-3 -25,-8l-73 -58c-22,-17 -32,-33 -32,-49 2,-25 29,-38 35,-43l70 -55c28,-22 68,2 64,36 -1,10 -6,19 -14,26l315 0c22,0 40,18 40,40 0,22 -18,40 -40,40l-315 0c30,25 10,71 -25,71zm251 -191c-36,0 -55,-46 -26,-71l-315 0c-22,0 -40,-18 -40,-40 0,-22 18,-40 40,-40l315 0c-28,-23 -12,-66 20,-70 11,-1 21,2 30,8 10,9 68,54 73,57 40,24 44,56 0,90l-73 57c-7,6 -16,9 -24,9zm-341 -135c-13,0 -24,11 -24,24 0,13 11,24 24,24l338 0c8,0 11,9 5,14 -12,10 -25,15 -26,29 -3,20 21,35 38,22l74 -58c35,-27 31,-44 1,-63 -12,-7 -60,-46 -75,-57 -17,-13 -41,2 -38,22 3,21 34,25 29,38 -1,3 -4,5 -7,5l-339 0zm70 131c-19,14 -62,48 -70,53 -31,20 -34,37 1,64l74 58c16,12 41,-2 38,-22 -3,-21 -34,-26 -29,-38 1,-3 4,-5 7,-5l339 0c13,0 23,-11 23,-24 0,-13 -11,-24 -23,-24l-338 0c-8,0 -11,-9 -5,-14 12,-10 25,-15 26,-29 3,-22 -20,-37 -43,-19z"/>
 </g>
</svg>
